<svg width="19" height="20" viewBox="0 0 19 20" fill="none" xmlns="http://www.w3.org/2000/svg">
<path fill-rule="evenodd" clip-rule="evenodd" d="M7.5 13.9062C10.5376 13.9062 13 11.4438 13 8.40625C13 5.36868 10.5376 2.90625 7.5 2.90625C4.46243 2.90625 2 5.36868 2 8.40625C2 11.4438 4.46243 13.9062 7.5 13.9062ZM7.5 15.9062C11.6421 15.9062 15 12.5484 15 8.40625C15 4.26411 11.6421 0.90625 7.5 0.90625C3.35786 0.90625 0 4.26411 0 8.40625C0 12.5484 3.35786 15.9062 7.5 15.9062Z" fill="black"/>
<path fill-rule="evenodd" clip-rule="evenodd" d="M17.3137 18.9271C17.1184 19.1223 16.8019 19.1223 16.6066 18.9271L12.0214 14.3419C11.8262 14.1466 11.8262 13.8301 12.0214 13.6348L12.7286 12.9277C12.9238 12.7324 13.2404 12.7324 13.4357 12.9277L18.0208 17.5129C18.2161 17.7081 18.2161 18.0247 18.0208 18.22L17.3137 18.9271Z" fill="black"/>
</svg>
