<svg id='vector' width="4" height="6" viewBox="0 0 4 6"
    xmlns="http://www.w3.org/2000/svg">
    <path
        d="M0.0806167 0.859119C-0.026872 0.75163 -0.026872 0.577356 0.0806167 0.469868L0.469868 0.0806165C0.577357 -0.0268722 0.75163 -0.0268722 0.859119 0.0806165L3.58388 2.80537C3.69137 2.91286 3.69137 3.08714 3.58388 3.19463L3.19463 3.58388C3.08714 3.69137 2.91286 3.69137 2.80537 3.58388L0.0806167 0.859119Z"
    />
    <path
        d="M2.80537 2.41612C2.91286 2.30863 3.08714 2.30863 3.19463 2.41612L3.58388 2.80537C3.69137 2.91286 3.69137 3.08714 3.58388 3.19463L0.859119 5.91938C0.75163 6.02687 0.577356 6.02687 0.469868 5.91938L0.0806165 5.53013C-0.0268722 5.42264 -0.0268722 5.24837 0.0806165 5.14088L2.80537 2.41612Z"
    />
</svg>