<svg id='language' width="18" height="19" viewBox="0 0 18 19" xmlns="http://www.w3.org/2000/svg">
    <path fill-rule="evenodd" clip-rule="evenodd"
        d="M9 16.9062C12.866 16.9062 16 13.7722 16 9.90625C16 6.04026 12.866 2.90625 9 2.90625C5.13401 2.90625 2 6.04026 2 9.90625C2 13.7722 5.13401 16.9062 9 16.9062ZM9 18.9062C13.9706 18.9062 18 14.8768 18 9.90625C18 4.93569 13.9706 0.90625 9 0.90625C4.02944 0.90625 0 4.93569 0 9.90625C0 14.8768 4.02944 18.9062 9 18.9062Z"
 />
    <path fill-rule="evenodd" clip-rule="evenodd"
        d="M10.3931 15.3758C11.0413 14.0793 11.5 12.1484 11.5 9.90625C11.5 7.66413 11.0413 5.73316 10.3931 4.43672C9.68509 3.02065 9.07698 2.90625 9 2.90625C8.92302 2.90625 8.31491 3.02065 7.60687 4.43672C6.95865 5.73316 6.5 7.66413 6.5 9.90625C6.5 12.1484 6.95865 14.0793 7.60687 15.3758C8.31491 16.7919 8.92302 16.9062 9 16.9062C9.07698 16.9062 9.68509 16.7919 10.3931 15.3758ZM9 18.9062C11.4853 18.9062 13.5 14.8768 13.5 9.90625C13.5 4.93569 11.4853 0.90625 9 0.90625C6.51472 0.90625 4.5 4.93569 4.5 9.90625C4.5 14.8768 6.51472 18.9062 9 18.9062Z"
     />
    <path fill-rule="evenodd" clip-rule="evenodd" d="M17.25 10.9062H0.75V8.90625H17.25V10.9062Z" />
</svg>